<svg xmlns="http://www.w3.org/2000/svg" xmlns:xlink="http://www.w3.org/1999/xlink" width="4096" zoomAndPan="magnify" viewBox="0 0 3072 1535.999932" height="2048" preserveAspectRatio="xMidYMid meet" version="1.0"><defs><filter x="0%" y="0%" width="100%" height="100%" id="5f13a7f26b"><feColorMatrix values="0 0 0 0 1 0 0 0 0 1 0 0 0 0 1 0 0 0 1 0" color-interpolation-filters="sRGB"/></filter><g/><mask id="b7e2b9c9b6"><g filter="url(#5f13a7f26b)"><rect x="-307.2" width="3686.4" fill="#000000" y="-153.599993" height="1843.199919" fill-opacity="0.83"/></g></mask><clipPath id="4e8c1a7af3"><path d="M 0.285156 0.230469 L 1719 0.230469 L 1719 754.238281 L 0.285156 754.238281 Z M 0.285156 0.230469 " clip-rule="nonzero"/></clipPath><clipPath id="128aab2bbd"><path d="M 1718.574219 47.460938 L 1718.574219 707.003906 C 1718.574219 719.53125 1713.597656 731.546875 1704.742188 740.402344 C 1695.882812 749.261719 1683.871094 754.238281 1671.34375 754.238281 L 47.515625 754.238281 C 34.992188 754.238281 22.976562 749.261719 14.121094 740.402344 C 5.261719 731.546875 0.285156 719.53125 0.285156 707.003906 L 0.285156 47.460938 C 0.285156 34.9375 5.261719 22.921875 14.121094 14.066406 C 22.976562 5.207031 34.992188 0.230469 47.515625 0.230469 L 1671.34375 0.230469 C 1683.871094 0.230469 1695.882812 5.207031 1704.742188 14.066406 C 1713.597656 22.921875 1718.574219 34.9375 1718.574219 47.460938 Z M 1718.574219 47.460938 " clip-rule="nonzero"/></clipPath><clipPath id="8903c2404c"><path d="M 0.285156 0.230469 L 1718 0.230469 L 1718 754.238281 L 0.285156 754.238281 Z M 0.285156 0.230469 " clip-rule="nonzero"/></clipPath><clipPath id="4ac4fc040c"><path d="M 1718.574219 47.460938 L 1718.574219 707.003906 C 1718.574219 719.53125 1713.597656 731.546875 1704.742188 740.402344 C 1695.882812 749.261719 1683.871094 754.238281 1671.34375 754.238281 L 47.515625 754.238281 C 34.992188 754.238281 22.976562 749.261719 14.121094 740.402344 C 5.261719 731.546875 0.285156 719.53125 0.285156 707.003906 L 0.285156 47.460938 C 0.285156 34.9375 5.261719 22.921875 14.121094 14.066406 C 22.976562 5.207031 34.992188 0.230469 47.515625 0.230469 L 1671.34375 0.230469 C 1683.871094 0.230469 1695.882812 5.207031 1704.742188 14.066406 C 1713.597656 22.921875 1718.574219 34.9375 1718.574219 47.460938 Z M 1718.574219 47.460938 " clip-rule="nonzero"/></clipPath><clipPath id="18f0a9ec5f"><rect x="0" width="1719" y="0" height="755"/></clipPath><clipPath id="e1ea6ff8ba"><rect x="0" width="1721" y="0" height="755"/></clipPath><clipPath id="dd1cb5dcf5"><rect x="0" width="1441" y="0" height="1536"/></clipPath><clipPath id="0b1d939130"><rect x="0" width="1145" y="0" height="730"/></clipPath></defs><rect x="-307.2" width="3686.4" fill="#ffffff" y="-153.599993" height="1843.199919" fill-opacity="1"/><rect x="-307.2" width="3686.4" fill="#ffffff" y="-153.599993" height="1843.199919" fill-opacity="1"/><g mask="url(#b7e2b9c9b6)"><g transform="matrix(1, 0, 0, 1, 34, 292)"><g clip-path="url(#e1ea6ff8ba)"><g clip-path="url(#4e8c1a7af3)"><g clip-path="url(#128aab2bbd)"><g transform="matrix(1, 0, 0, 1, 0, -0.000000000000113687)"><g clip-path="url(#18f0a9ec5f)"><g clip-path="url(#8903c2404c)"><g clip-path="url(#4ac4fc040c)"><path fill="#004d5d" d="M 0.285156 0.230469 L 1717.414062 0.230469 L 1717.414062 754.238281 L 0.285156 754.238281 Z M 0.285156 0.230469 " fill-opacity="1" fill-rule="nonzero"/></g></g></g></g></g></g></g></g></g><g transform="matrix(1, 0, 0, 1, 1526, -0.000000000000122336)"><g clip-path="url(#dd1cb5dcf5)"><g fill="#000000" fill-opacity="1"><g transform="translate(6.82685, 1126.755003)"><g><path d="M 363.53125 139.53125 C 363.53125 148.914062 361.828125 154.035156 358.421875 154.890625 C 348.179688 154.890625 338.363281 156.59375 328.96875 160 C 325.5625 161.707031 322.578125 162.5625 320.015625 162.5625 C 319.160156 162.5625 318.304688 162.347656 317.453125 161.921875 C 316.597656 161.492188 315.742188 161.707031 314.890625 162.5625 C 308.921875 162.5625 304.226562 164.269531 300.8125 167.6875 C 299.957031 167.6875 299.316406 167.6875 298.890625 167.6875 C 298.460938 167.6875 297.394531 167.6875 295.6875 167.6875 C 287.15625 167.6875 279.050781 169.816406 271.375 174.078125 C 263.695312 178.347656 255.160156 181.765625 245.765625 184.328125 C 235.523438 186.890625 225.5 190.515625 215.6875 195.203125 C 205.875 199.898438 195.847656 203.101562 185.609375 204.8125 C 180.484375 205.664062 175.570312 208.007812 170.875 211.84375 C 166.1875 215.6875 161.710938 218.460938 157.453125 220.171875 C 139.523438 229.554688 122.238281 240.222656 105.59375 252.171875 C 88.957031 264.117188 72.109375 276.066406 55.046875 288.015625 C 53.335938 288.867188 51.84375 289.9375 50.5625 291.21875 C 49.28125 292.5 47.785156 293.566406 46.078125 294.421875 C 41.816406 297.828125 37.976562 299.53125 34.5625 299.53125 C 29.4375 299.53125 23.890625 294.835938 17.921875 285.453125 C 16.210938 282.035156 14.503906 278.617188 12.796875 275.203125 C 11.085938 271.796875 8.957031 268.382812 6.40625 264.96875 C -0.425781 255.582031 -1.707031 243.632812 2.5625 229.125 C 8.53125 211.207031 13.222656 193.289062 16.640625 175.375 C 16.640625 175.375 17.492188 172.8125 19.203125 167.6875 C 24.316406 162.5625 27.726562 156.375 29.4375 149.125 C 31.144531 141.875 32.851562 133.984375 34.5625 125.453125 C 35.414062 122.035156 36.695312 117.765625 38.40625 112.640625 C 42.664062 105.816406 46.289062 97.5 49.28125 87.6875 C 52.269531 77.875 55.472656 69.125 58.890625 61.4375 C 64.859375 44.375 71.039062 27.734375 77.4375 11.515625 C 83.84375 -4.691406 90.03125 -20.90625 96 -37.125 C 98.5625 -44.800781 100.910156 -52.90625 103.046875 -61.4375 C 105.179688 -69.976562 107.953125 -77.234375 111.359375 -83.203125 C 114.773438 -90.023438 117.550781 -97.273438 119.6875 -104.953125 C 121.820312 -112.640625 123.742188 -119.894531 125.453125 -126.71875 C 128.859375 -135.257812 131.84375 -143.15625 134.40625 -150.40625 C 136.96875 -157.65625 139.53125 -165.550781 142.09375 -174.09375 C 148.914062 -198.832031 156.378906 -222.296875 164.484375 -244.484375 C 172.597656 -266.679688 180.066406 -289.296875 186.890625 -312.328125 C 193.710938 -331.960938 199.679688 -351.378906 204.796875 -370.578125 C 209.921875 -389.773438 215.046875 -408.765625 220.171875 -427.546875 C 221.878906 -431.804688 223.160156 -435.859375 224.015625 -439.703125 C 224.867188 -443.546875 225.722656 -447.171875 226.578125 -450.578125 C 234.253906 -470.203125 240.863281 -490.253906 246.40625 -510.734375 C 251.957031 -531.222656 257.289062 -552.132812 262.40625 -573.46875 C 265.820312 -585.414062 269.238281 -597.148438 272.65625 -608.671875 C 276.070312 -620.191406 279.484375 -631.5 282.890625 -642.59375 C 289.722656 -664.78125 295.910156 -687.179688 301.453125 -709.796875 C 307.003906 -732.410156 311.484375 -755.238281 314.890625 -778.28125 C 319.160156 -796.195312 323.640625 -814.113281 328.328125 -832.03125 C 333.023438 -849.957031 337.082031 -868.304688 340.5 -887.078125 C 343.0625 -897.316406 345.40625 -907.554688 347.53125 -917.796875 C 349.664062 -928.046875 351.585938 -937.863281 353.296875 -947.25 C 354.148438 -949.8125 354.789062 -952.582031 355.21875 -955.5625 C 355.644531 -958.550781 356.285156 -960.898438 357.140625 -962.609375 C 361.398438 -969.429688 366.09375 -972.84375 371.21875 -972.84375 C 376.34375 -972.84375 380.609375 -970.285156 384.015625 -965.171875 C 385.722656 -963.460938 387.003906 -962.609375 387.859375 -962.609375 C 399.804688 -948.953125 406.421875 -934.65625 407.703125 -919.71875 C 408.984375 -904.789062 407.488281 -888.789062 403.21875 -871.71875 C 398.101562 -846.125 391.703125 -823.507812 384.015625 -803.875 C 379.753906 -791.925781 375.914062 -779.765625 372.5 -767.390625 C 369.082031 -755.023438 366.09375 -742.867188 363.53125 -730.921875 C 360.976562 -719.828125 358.207031 -708.941406 355.21875 -698.265625 C 352.226562 -687.597656 349.453125 -676.296875 346.890625 -664.359375 C 345.191406 -658.378906 342.632812 -652.828125 339.21875 -647.703125 C 335.800781 -642.585938 333.238281 -636.617188 331.53125 -629.796875 C 330.675781 -622.960938 329.609375 -616.34375 328.328125 -609.9375 C 327.054688 -603.539062 325.140625 -596.929688 322.578125 -590.109375 C 320.867188 -584.984375 318.945312 -580.070312 316.8125 -575.375 C 314.675781 -570.6875 312.757812 -565.359375 311.0625 -559.390625 C 310.207031 -554.265625 308.925781 -549.566406 307.21875 -545.296875 C 305.507812 -541.035156 304.65625 -535.921875 304.65625 -529.953125 C 304.65625 -526.535156 304.015625 -522.691406 302.734375 -518.421875 C 301.453125 -514.160156 299.957031 -510.320312 298.25 -506.90625 C 297.394531 -504.34375 295.898438 -502.207031 293.765625 -500.5 C 291.640625 -498.789062 291.859375 -495.804688 294.421875 -491.546875 C 294.421875 -490.691406 293.566406 -487.703125 291.859375 -482.578125 C 289.296875 -478.316406 286.734375 -473.835938 284.171875 -469.140625 C 281.609375 -464.453125 279.476562 -459.972656 277.78125 -455.703125 C 276.070312 -449.722656 275.644531 -445.882812 276.5 -444.1875 C 278.195312 -441.625 278.617188 -439.0625 277.765625 -436.5 C 276.921875 -433.9375 276.070312 -431.800781 275.21875 -430.09375 C 271.800781 -421.5625 267.742188 -412.390625 263.046875 -402.578125 C 258.359375 -392.765625 255.160156 -382.3125 253.453125 -371.21875 C 253.453125 -369.507812 253.023438 -368.015625 252.171875 -366.734375 C 251.316406 -365.453125 250.890625 -363.957031 250.890625 -362.25 C 250.890625 -351.15625 249.179688 -340.703125 245.765625 -330.890625 C 242.359375 -321.078125 238.519531 -311.476562 234.25 -302.09375 C 233.394531 -299.53125 232.753906 -296.539062 232.328125 -293.125 C 231.898438 -289.71875 231.257812 -287.160156 230.40625 -285.453125 C 227.851562 -281.179688 226.578125 -275.847656 226.578125 -269.453125 C 226.578125 -263.054688 224.441406 -258.148438 220.171875 -254.734375 C 216.753906 -251.316406 215.257812 -246.617188 215.6875 -240.640625 C 216.113281 -234.671875 214.195312 -230.832031 209.9375 -229.125 C 207.375 -226.570312 206.09375 -223.160156 206.09375 -218.890625 C 206.945312 -213.765625 206.734375 -209.28125 205.453125 -205.4375 C 204.171875 -201.601562 202.675781 -197.976562 200.96875 -194.5625 C 197.550781 -187.738281 194.347656 -180.910156 191.359375 -174.078125 C 188.378906 -167.253906 186.460938 -159.578125 185.609375 -151.046875 C 184.753906 -145.078125 181.769531 -141.238281 176.65625 -139.53125 C 170.675781 -137.820312 169.820312 -133.976562 174.09375 -128 C 176.644531 -122.03125 176.644531 -115.632812 174.09375 -108.8125 C 170.675781 -101.976562 167.472656 -95.144531 164.484375 -88.3125 C 161.492188 -81.488281 159.148438 -74.238281 157.453125 -66.5625 C 155.742188 -59.738281 152.753906 -53.335938 148.484375 -47.359375 C 144.222656 -41.390625 141.238281 -34.988281 139.53125 -28.15625 C 138.675781 -24.75 137.394531 -21.765625 135.6875 -19.203125 C 133.976562 -16.640625 134.40625 -13.222656 136.96875 -8.953125 C 136.113281 -4.691406 135.046875 -0.644531 133.765625 3.1875 C 132.484375 7.03125 130.988281 10.660156 129.28125 14.078125 C 125.019531 22.609375 121.820312 31.992188 119.6875 42.234375 C 117.550781 52.484375 114.347656 62.300781 110.078125 71.6875 C 105.816406 80.21875 101.976562 89.816406 98.5625 100.484375 C 95.144531 111.148438 92.160156 121.601562 89.609375 131.84375 C 91.316406 137.820312 90.460938 142.300781 87.046875 145.28125 C 83.628906 148.269531 81.066406 152.328125 79.359375 157.453125 C 78.503906 162.566406 77.222656 167.253906 75.515625 171.515625 C 73.816406 175.785156 72.113281 180.484375 70.40625 185.609375 C 69.550781 188.171875 68.695312 190.941406 67.84375 193.921875 C 66.988281 196.910156 66.988281 199.6875 67.84375 202.25 C 68.695312 203.101562 69.976562 203.53125 71.6875 203.53125 C 74.25 203.53125 76.804688 202.25 79.359375 199.6875 C 92.160156 189.445312 108.800781 178.992188 129.28125 168.328125 C 149.757812 157.660156 170.664062 148.484375 192 140.796875 C 213.34375 133.117188 231.691406 128.003906 247.046875 125.453125 C 252.171875 123.742188 257.078125 122.25 261.765625 120.96875 C 266.460938 119.6875 271.375 118.617188 276.5 117.765625 C 284.175781 114.347656 292.707031 112.640625 302.09375 112.640625 C 306.363281 112.640625 309.988281 112.425781 312.96875 112 C 315.957031 111.570312 318.734375 109.65625 321.296875 106.25 C 322.148438 106.25 322.789062 106.25 323.21875 106.25 C 323.644531 106.25 323.859375 106.25 323.859375 106.25 C 332.390625 106.25 340.492188 104.96875 348.171875 102.40625 C 355.859375 99.84375 363.539062 98.5625 371.21875 98.5625 C 372.070312 98.5625 372.710938 98.5625 373.140625 98.5625 C 373.566406 98.5625 374.207031 98.5625 375.0625 98.5625 C 382.738281 98.5625 390.414062 97.28125 398.09375 94.71875 C 405.78125 92.164062 413.460938 90.035156 421.140625 88.328125 C 424.554688 86.617188 427.117188 85.765625 428.828125 85.765625 C 435.648438 85.765625 442.6875 85.550781 449.9375 85.125 C 457.195312 84.695312 464.238281 84.054688 471.0625 83.203125 C 477.882812 83.203125 484.707031 82.132812 491.53125 80 C 498.363281 77.863281 505.195312 76.796875 512.03125 76.796875 C 534.21875 76.796875 556.832031 76.796875 579.875 76.796875 C 602.914062 76.796875 625.53125 76.796875 647.71875 76.796875 C 649.414062 76.796875 650.90625 76.796875 652.1875 76.796875 C 653.46875 76.796875 654.535156 76.796875 655.390625 76.796875 C 659.660156 76.796875 663.925781 77.222656 668.1875 78.078125 C 672.457031 78.929688 676.300781 80.640625 679.71875 83.203125 C 681.414062 84.910156 683.117188 85.765625 684.828125 85.765625 C 687.390625 85.765625 689.523438 84.910156 691.234375 83.203125 C 702.328125 83.203125 715.128906 85.335938 729.640625 89.609375 C 736.460938 93.867188 739.445312 97.28125 738.59375 99.84375 C 736.882812 106.664062 733.898438 110.929688 729.640625 112.640625 C 726.222656 113.492188 722.164062 114.773438 717.46875 116.484375 C 712.78125 118.191406 708.300781 119.046875 704.03125 119.046875 C 703.175781 119.046875 702.75 119.046875 702.75 119.046875 C 702.75 119.046875 702.320312 119.046875 701.46875 119.046875 C 699.769531 119.046875 697.640625 119.046875 695.078125 119.046875 C 692.515625 119.046875 690.378906 119.046875 688.671875 119.046875 C 684.398438 119.046875 679.914062 119.046875 675.21875 119.046875 C 670.53125 119.046875 666.054688 119.046875 661.796875 119.046875 C 660.085938 119.046875 657.953125 119.257812 655.390625 119.6875 C 652.828125 120.113281 650.269531 121.179688 647.71875 122.890625 C 642.59375 125.441406 637.894531 126.71875 633.625 126.71875 C 628.507812 126.71875 623.816406 124.585938 619.546875 120.328125 L 595.234375 120.328125 C 591.816406 124.585938 587.117188 126.71875 581.140625 126.71875 C 575.171875 126.71875 569.410156 126.71875 563.859375 126.71875 C 558.316406 126.71875 552.5625 126.71875 546.59375 126.71875 C 548.289062 121.601562 549.140625 119.046875 549.140625 119.046875 C 553.410156 117.335938 554.265625 113.5 551.703125 107.53125 C 551.703125 107.53125 551.273438 107.316406 550.421875 106.890625 C 549.566406 106.460938 548.710938 106.25 547.859375 106.25 C 542.742188 106.25 540.1875 108.378906 540.1875 112.640625 C 540.1875 118.617188 539.117188 122.457031 536.984375 124.15625 C 534.847656 125.863281 531.648438 126.71875 527.390625 126.71875 C 522.265625 126.71875 517.140625 126.71875 512.015625 126.71875 C 506.898438 126.71875 502.207031 126.296875 497.9375 125.453125 C 496.238281 124.597656 494.535156 124.171875 492.828125 124.171875 C 491.117188 124.171875 489.835938 125.875 488.984375 129.28125 C 488.128906 130.988281 485.992188 131.84375 482.578125 131.84375 C 480.867188 132.695312 478.734375 133.335938 476.171875 133.765625 C 473.617188 134.191406 471.488281 134.40625 469.78125 134.40625 C 468.925781 134.40625 467.644531 134.40625 465.9375 134.40625 C 464.226562 134.40625 462.523438 134.40625 460.828125 134.40625 C 452.285156 134.40625 443.960938 135.6875 435.859375 138.25 C 427.753906 140.8125 419.007812 142.941406 409.625 144.640625 C 406.207031 145.492188 402.148438 146.5625 397.453125 147.84375 C 392.765625 149.125 388.285156 149.765625 384.015625 149.765625 C 377.191406 149.765625 370.363281 147.207031 363.53125 142.09375 C 362.675781 140.382812 362.25 138.675781 362.25 136.96875 C 362.25 135.257812 361.398438 135.257812 359.703125 136.96875 C 360.554688 136.96875 361.191406 137.394531 361.609375 138.25 C 362.035156 139.101562 362.675781 139.53125 363.53125 139.53125 Z M 220.171875 -321.296875 C 223.585938 -323.003906 225.296875 -325.132812 225.296875 -327.6875 C 225.296875 -330.25 225.296875 -332.8125 225.296875 -335.375 C 228.703125 -337.082031 230.40625 -339.210938 230.40625 -341.765625 C 230.40625 -344.328125 230.40625 -346.460938 230.40625 -348.171875 C 233.820312 -349.878906 235.53125 -352.226562 235.53125 -355.21875 C 235.53125 -358.207031 235.53125 -360.976562 235.53125 -363.53125 C 241.5 -366.945312 244.484375 -371.644531 244.484375 -377.625 C 244.484375 -377.625 244.484375 -378.257812 244.484375 -379.53125 C 244.484375 -380.8125 244.0625 -381.453125 243.21875 -381.453125 C 243.21875 -382.304688 243.003906 -382.734375 242.578125 -382.734375 C 242.148438 -382.734375 241.9375 -382.304688 241.9375 -381.453125 C 237.664062 -377.191406 235.53125 -371.21875 235.53125 -363.53125 C 232.96875 -362.675781 231.6875 -360.753906 231.6875 -357.765625 C 231.6875 -354.785156 231.257812 -351.585938 230.40625 -348.171875 C 227.851562 -347.316406 226.578125 -345.609375 226.578125 -343.046875 C 226.578125 -340.492188 226.578125 -337.507812 226.578125 -334.09375 C 223.160156 -333.238281 221.453125 -328.972656 221.453125 -321.296875 C 218.890625 -318.734375 217.609375 -316.597656 217.609375 -314.890625 C 215.898438 -314.890625 216.328125 -313.613281 218.890625 -311.0625 C 219.742188 -314.46875 220.171875 -317.878906 220.171875 -321.296875 Z M 299.53125 -579.875 C 296.96875 -579.019531 295.6875 -577.3125 295.6875 -574.75 C 295.6875 -573.039062 296.539062 -572.1875 298.25 -572.1875 C 299.101562 -573.894531 299.53125 -576.457031 299.53125 -579.875 C 302.09375 -579.875 303.375 -582.429688 303.375 -587.546875 C 303.375 -587.546875 303.160156 -587.972656 302.734375 -588.828125 C 302.304688 -589.679688 301.664062 -590.109375 300.8125 -590.109375 C 300.8125 -588.398438 300.597656 -586.90625 300.171875 -585.625 C 299.742188 -584.34375 299.53125 -582.425781 299.53125 -579.875 Z M 225.296875 -398.09375 C 228.703125 -399.800781 230.40625 -401.9375 230.40625 -404.5 C 230.40625 -407.0625 230.40625 -410.046875 230.40625 -413.453125 C 233.820312 -414.304688 235.53125 -419.003906 235.53125 -427.546875 C 236.382812 -429.242188 237.238281 -430.304688 238.09375 -430.734375 C 238.945312 -431.160156 239.375 -431.800781 239.375 -432.65625 C 240.226562 -433.507812 240.226562 -434.578125 239.375 -435.859375 C 238.519531 -437.140625 238.09375 -438.207031 238.09375 -439.0625 C 238.09375 -433.9375 237.238281 -429.671875 235.53125 -426.265625 C 232.96875 -425.410156 231.472656 -423.703125 231.046875 -421.140625 C 230.617188 -418.578125 230.40625 -416.015625 230.40625 -413.453125 C 227.851562 -412.609375 226.578125 -410.476562 226.578125 -407.0625 C 226.578125 -403.644531 226.578125 -400.65625 226.578125 -398.09375 C 225.722656 -397.238281 224.867188 -396.8125 224.015625 -396.8125 C 223.160156 -396.8125 223.160156 -395.535156 224.015625 -392.984375 C 224.015625 -394.691406 224.226562 -395.753906 224.65625 -396.171875 C 225.082031 -396.597656 225.296875 -397.238281 225.296875 -398.09375 Z M 216.328125 -371.21875 C 215.472656 -369.507812 214.832031 -368.226562 214.40625 -367.375 C 213.976562 -366.519531 213.335938 -365.238281 212.484375 -363.53125 C 212.484375 -363.53125 212.695312 -362.890625 213.125 -361.609375 C 213.550781 -360.335938 213.765625 -359.273438 213.765625 -358.421875 C 214.617188 -359.273438 215.257812 -361.40625 215.6875 -364.8125 C 216.113281 -368.226562 216.328125 -370.363281 216.328125 -371.21875 C 218.890625 -371.21875 219.316406 -372.5 217.609375 -375.0625 C 217.609375 -374.207031 217.394531 -373.566406 216.96875 -373.140625 C 216.539062 -372.710938 216.328125 -372.070312 216.328125 -371.21875 Z M 186.890625 -266.25 C 188.597656 -267.957031 189.878906 -270.09375 190.734375 -272.65625 C 190.734375 -272.65625 190.519531 -273.296875 190.09375 -274.578125 C 189.664062 -275.859375 189.453125 -276.5 189.453125 -276.5 C 188.597656 -276.5 188.171875 -275.644531 188.171875 -273.9375 C 187.316406 -272.226562 186.890625 -269.664062 186.890625 -266.25 C 186.035156 -266.25 185.179688 -265.394531 184.328125 -263.6875 C 183.472656 -261.976562 182.617188 -260.273438 181.765625 -258.578125 C 179.203125 -257.722656 177.707031 -255.800781 177.28125 -252.8125 C 176.863281 -249.820312 176.65625 -247.046875 176.65625 -244.484375 C 175.800781 -243.640625 175.160156 -242.789062 174.734375 -241.9375 C 174.304688 -241.082031 173.664062 -239.800781 172.8125 -238.09375 C 172.8125 -238.09375 173.023438 -237.453125 173.453125 -236.171875 C 173.878906 -234.890625 174.09375 -233.394531 174.09375 -231.6875 C 174.945312 -233.394531 175.375 -235.101562 175.375 -236.8125 C 176.226562 -237.664062 176.65625 -240.222656 176.65625 -244.484375 C 180.0625 -246.191406 181.765625 -248.328125 181.765625 -250.890625 C 181.765625 -253.453125 181.765625 -256.015625 181.765625 -258.578125 C 184.328125 -259.429688 186.035156 -261.988281 186.890625 -266.25 Z M 195.84375 -302.09375 C 198.40625 -302.945312 199.898438 -304.65625 200.328125 -307.21875 C 200.753906 -309.78125 200.96875 -312.335938 200.96875 -314.890625 C 209.5 -324.273438 212.488281 -334.941406 209.9375 -346.890625 C 203.957031 -335.796875 200.96875 -325.128906 200.96875 -314.890625 C 198.40625 -314.035156 197.125 -311.898438 197.125 -308.484375 C 197.125 -305.078125 197.125 -302.09375 197.125 -299.53125 C 196.269531 -298.675781 195.414062 -298.035156 194.5625 -297.609375 C 193.71875 -297.179688 192.867188 -296.117188 192.015625 -294.421875 C 192.015625 -291.859375 193.289062 -290.578125 195.84375 -290.578125 C 195.84375 -292.285156 195.84375 -294.203125 195.84375 -296.328125 C 195.84375 -298.460938 195.84375 -300.382812 195.84375 -302.09375 Z M 471.0625 119.046875 C 470.207031 119.046875 469.351562 119.046875 468.5 119.046875 C 467.644531 119.046875 466.363281 119.046875 464.65625 119.046875 C 462.957031 119.046875 460.828125 119.257812 458.265625 119.6875 C 455.703125 120.113281 453.566406 121.179688 451.859375 122.890625 C 453.566406 125.441406 456.128906 126.71875 459.546875 126.71875 C 461.253906 126.71875 462.53125 126.71875 463.375 126.71875 C 464.226562 126.71875 465.082031 126.71875 465.9375 126.71875 C 468.5 125.019531 469.78125 122.460938 469.78125 119.046875 C 473.195312 119.046875 475.332031 118.617188 476.1875 117.765625 C 477.039062 117.765625 477.894531 117.335938 478.75 116.484375 C 477.894531 116.484375 477.253906 116.054688 476.828125 115.203125 C 476.398438 114.347656 475.757812 113.921875 474.90625 113.921875 C 472.34375 113.921875 471.0625 115.628906 471.0625 119.046875 Z M 290.578125 -546.59375 C 287.160156 -543.175781 284.8125 -538.90625 283.53125 -533.78125 C 282.25 -528.664062 281.179688 -523.117188 280.328125 -517.140625 C 272.648438 -511.171875 269.664062 -500.503906 271.375 -485.140625 C 278.195312 -495.378906 281.179688 -506.472656 280.328125 -518.421875 C 285.453125 -520.128906 288.226562 -523.753906 288.65625 -529.296875 C 289.082031 -534.847656 289.296875 -540.613281 289.296875 -546.59375 C 290.148438 -547.4375 291.003906 -548.285156 291.859375 -549.140625 C 292.710938 -549.992188 293.566406 -550.847656 294.421875 -551.703125 C 294.421875 -554.265625 293.140625 -555.546875 290.578125 -555.546875 C 290.578125 -553.835938 290.578125 -552.128906 290.578125 -550.421875 C 290.578125 -548.710938 290.578125 -547.4375 290.578125 -546.59375 Z M 74.25 76.796875 C 78.507812 75.953125 81.492188 72.96875 83.203125 67.84375 C 84.910156 63.570312 84.484375 60.585938 81.921875 58.890625 C 78.503906 57.179688 76.375 58.03125 75.53125 61.4375 C 75.53125 64.851562 75.53125 67.628906 75.53125 69.765625 C 75.53125 71.898438 75.53125 74.242188 75.53125 76.796875 C 74.675781 77.648438 73.820312 78.71875 72.96875 80 C 72.113281 81.28125 71.257812 82.347656 70.40625 83.203125 C 70.40625 85.765625 71.6875 87.046875 74.25 87.046875 C 74.25 85.335938 74.25 83.84375 74.25 82.5625 C 74.25 81.28125 74.25 79.359375 74.25 76.796875 Z M 147.203125 -145.921875 C 146.347656 -145.066406 145.492188 -144.210938 144.640625 -143.359375 C 143.785156 -142.515625 142.9375 -141.238281 142.09375 -139.53125 C 137.820312 -126.726562 133.765625 -114.140625 129.921875 -101.765625 C 126.085938 -89.390625 122.035156 -77.226562 117.765625 -65.28125 C 116.910156 -62.71875 116.269531 -60.796875 115.84375 -59.515625 C 115.414062 -58.242188 115.203125 -56.753906 115.203125 -55.046875 C 115.203125 -54.191406 116.054688 -53.335938 117.765625 -52.484375 C 119.472656 -57.597656 122.457031 -62.503906 126.71875 -67.203125 C 130.988281 -71.898438 133.550781 -77.234375 134.40625 -83.203125 C 135.257812 -91.734375 137.175781 -98.984375 140.15625 -104.953125 C 143.144531 -110.929688 145.066406 -118.1875 145.921875 -126.71875 C 145.921875 -130.132812 146.132812 -133.335938 146.5625 -136.328125 C 146.988281 -139.316406 147.203125 -142.515625 147.203125 -145.921875 C 148.910156 -145.921875 150.617188 -147.203125 152.328125 -149.765625 C 154.035156 -152.328125 155.316406 -154.460938 156.171875 -156.171875 C 157.023438 -157.878906 157.238281 -159.796875 156.8125 -161.921875 C 156.382812 -164.054688 155.742188 -165.125 154.890625 -165.125 C 152.328125 -165.125 150.40625 -162.347656 149.125 -156.796875 C 147.84375 -151.253906 147.203125 -147.628906 147.203125 -145.921875 Z M 311.0625 -623.390625 C 315.320312 -629.359375 317.664062 -635.328125 318.09375 -641.296875 C 318.519531 -647.273438 320.015625 -653.253906 322.578125 -659.234375 C 322.578125 -660.941406 322.789062 -662.644531 323.21875 -664.34375 C 323.644531 -666.050781 323.003906 -667.757812 321.296875 -669.46875 C 321.296875 -669.46875 320.65625 -668.828125 319.375 -667.546875 C 318.09375 -666.265625 317.023438 -664.773438 316.171875 -663.078125 C 315.316406 -658.804688 314.460938 -654.320312 313.609375 -649.625 C 312.753906 -644.9375 311.476562 -640.03125 309.78125 -634.90625 C 309.78125 -634.050781 309.992188 -632.554688 310.421875 -630.421875 C 310.847656 -628.296875 311.0625 -625.953125 311.0625 -623.390625 Z M 253.453125 -426.265625 C 252.597656 -422.847656 251.53125 -419.644531 250.25 -416.65625 C 248.96875 -413.675781 247.898438 -410.050781 247.046875 -405.78125 C 247.898438 -405.78125 248.328125 -404.070312 248.328125 -400.65625 C 249.179688 -401.507812 250.035156 -401.9375 250.890625 -401.9375 C 252.597656 -406.207031 253.878906 -409.832031 254.734375 -412.8125 C 255.585938 -415.800781 255.160156 -420.285156 253.453125 -426.265625 Z M 161.28125 -192.015625 C 164.695312 -195.421875 166.40625 -200.96875 166.40625 -208.65625 C 166.40625 -210.351562 165.550781 -211.628906 163.84375 -212.484375 C 162.988281 -209.078125 162.132812 -206.09375 161.28125 -203.53125 C 160.425781 -200.96875 159.148438 -197.976562 157.453125 -194.5625 C 157.453125 -194.5625 157.664062 -194.132812 158.09375 -193.28125 C 158.519531 -192.4375 158.734375 -192.015625 158.734375 -192.015625 C 159.578125 -192.015625 160 -192.015625 160 -192.015625 C 160 -192.015625 160.425781 -192.015625 161.28125 -192.015625 Z M 263.6875 -449.296875 C 264.539062 -452.710938 265.394531 -455.910156 266.25 -458.890625 C 267.101562 -461.878906 267.957031 -465.082031 268.8125 -468.5 C 269.664062 -469.351562 269.664062 -470.207031 268.8125 -471.0625 C 267.957031 -471.914062 267.53125 -472.769531 267.53125 -473.625 C 266.675781 -473.625 266.25 -473.195312 266.25 -472.34375 C 266.25 -471.488281 265.820312 -471.0625 264.96875 -471.0625 C 259 -465.09375 258.570312 -457.835938 263.6875 -449.296875 Z M 102.40625 6.40625 C 104.96875 6.40625 106.25 5.125 106.25 2.5625 C 106.25 1.707031 104.96875 1.28125 102.40625 1.28125 C 99.84375 1.28125 98.132812 1.707031 97.28125 2.5625 C 98.132812 5.125 99.84375 6.40625 102.40625 6.40625 Z M 110.078125 -15.359375 C 111.785156 -15.359375 112.640625 -15.785156 112.640625 -16.640625 C 111.785156 -17.492188 111.359375 -18.5625 111.359375 -19.84375 C 111.359375 -21.125 110.929688 -22.191406 110.078125 -23.046875 C 109.234375 -23.046875 108.597656 -23.257812 108.171875 -23.6875 C 107.742188 -24.113281 107.101562 -24.328125 106.25 -24.328125 C 105.394531 -24.328125 104.96875 -23.046875 104.96875 -20.484375 C 104.96875 -17.921875 105.394531 -16.210938 106.25 -15.359375 C 107.101562 -15.359375 107.742188 -15.359375 108.171875 -15.359375 C 108.597656 -15.359375 109.234375 -15.359375 110.078125 -15.359375 Z M 58.890625 136.96875 C 55.472656 135.257812 54.191406 134.40625 55.046875 134.40625 C 52.484375 134.40625 51.203125 136.96875 51.203125 142.09375 C 51.203125 142.9375 51.628906 143.570312 52.484375 144 C 53.335938 144.425781 53.765625 144.640625 53.765625 144.640625 C 54.617188 143.785156 55.472656 142.503906 56.328125 140.796875 C 57.179688 139.097656 58.035156 137.820312 58.890625 136.96875 Z M 90.890625 30.71875 C 89.179688 29.007812 87.472656 29.863281 85.765625 33.28125 C 85.765625 33.28125 85.765625 33.707031 85.765625 34.5625 C 85.765625 35.414062 85.765625 36.695312 85.765625 38.40625 C 85.765625 40.957031 86.617188 41.382812 88.328125 39.6875 C 90.035156 37.976562 90.890625 34.988281 90.890625 30.71875 Z M 569.625 113.921875 C 569.625 114.773438 569.835938 115.414062 570.265625 115.84375 C 570.691406 116.269531 570.90625 116.910156 570.90625 117.765625 C 572.613281 117.765625 573.46875 116.484375 573.46875 113.921875 C 573.46875 111.359375 573.039062 109.226562 572.1875 107.53125 C 570.476562 110.082031 569.625 112.210938 569.625 113.921875 Z M 394.265625 130.5625 C 395.117188 131.414062 396.394531 131.84375 398.09375 131.84375 C 398.09375 130.132812 397.664062 129.28125 396.8125 129.28125 C 395.96875 127.570312 395.332031 127.144531 394.90625 128 C 394.476562 128.851562 394.265625 129.707031 394.265625 130.5625 Z M 116.484375 -39.6875 C 115.628906 -39.6875 114.988281 -39.898438 114.5625 -40.328125 C 114.132812 -40.753906 113.492188 -40.96875 112.640625 -40.96875 C 112.640625 -39.257812 112.851562 -37.976562 113.28125 -37.125 C 113.707031 -36.269531 113.921875 -35.84375 113.921875 -35.84375 C 115.628906 -35.84375 116.484375 -37.125 116.484375 -39.6875 Z M 325.140625 -683.546875 C 325.140625 -683.546875 325.351562 -683.117188 325.78125 -682.265625 C 326.207031 -681.421875 326.421875 -681 326.421875 -681 C 327.273438 -681 327.910156 -682.0625 328.328125 -684.1875 C 328.753906 -686.320312 328.546875 -687.816406 327.703125 -688.671875 C 325.992188 -687.816406 325.140625 -686.109375 325.140625 -683.546875 Z M 337.9375 -723.234375 C 337.9375 -723.234375 337.722656 -723.660156 337.296875 -724.515625 C 336.867188 -725.367188 336.65625 -725.796875 336.65625 -725.796875 C 335.800781 -724.085938 335.375 -721.953125 335.375 -719.390625 C 335.375 -718.535156 335.800781 -717.257812 336.65625 -715.5625 C 336.65625 -717.257812 336.867188 -718.75 337.296875 -720.03125 C 337.722656 -721.3125 337.9375 -722.378906 337.9375 -723.234375 Z M 262.40625 -528.671875 L 263.6875 -528.671875 L 262.40625 -529.953125 Z M 247.046875 -473.625 L 248.328125 -471.0625 L 248.328125 -473.625 Z M 258.578125 -506.90625 L 257.296875 -506.90625 L 258.578125 -505.625 Z M 277.78125 -578.59375 L 276.5 -577.3125 L 277.78125 -577.3125 Z M 385.296875 130.5625 L 384.015625 129.28125 L 384.015625 130.5625 Z M 212.484375 -298.25 L 215.046875 -298.25 Z M 258.578125 -436.5 L 258.578125 -439.0625 L 257.296875 -436.5 Z M 97.28125 19.203125 L 97.28125 16.640625 L 96 19.203125 Z M 527.390625 117.765625 L 527.390625 113.921875 L 526.109375 116.484375 Z M 61.4375 117.765625 L 64 116.484375 L 62.71875 113.921875 Z M 634.90625 101.125 L 632.34375 101.125 L 633.625 103.6875 Z M 634.90625 101.125 "/></g></g></g><g fill="#000000" fill-opacity="1"><g transform="translate(335.780383, 1126.755003)"><g><path d="M 199.6875 -160 C 198.832031 -155.738281 197.335938 -151.257812 195.203125 -146.5625 C 193.078125 -141.875 189.878906 -138.675781 185.609375 -136.96875 C 186.460938 -133.550781 186.25 -130.773438 184.96875 -128.640625 C 183.6875 -126.515625 182.191406 -124.171875 180.484375 -121.609375 C 174.515625 -113.078125 170.675781 -105.820312 168.96875 -99.84375 C 167.257812 -96.425781 165.335938 -93.007812 163.203125 -89.59375 C 161.066406 -86.1875 159.578125 -82.347656 158.734375 -78.078125 C 157.878906 -74.671875 155.53125 -71.257812 151.6875 -67.84375 C 147.84375 -64.425781 146.773438 -60.160156 148.484375 -55.046875 C 145.921875 -51.628906 143.144531 -48.425781 140.15625 -45.4375 C 137.175781 -42.457031 134.832031 -38.832031 133.125 -34.5625 C 132.269531 -32 130.347656 -30.078125 127.359375 -28.796875 C 124.378906 -27.515625 122.035156 -26.023438 120.328125 -24.328125 C 115.203125 -15.785156 103.890625 -5.539062 86.390625 6.40625 C 68.898438 18.351562 55.460938 26.457031 46.078125 30.71875 C 42.671875 32.425781 39.257812 33.492188 35.84375 33.921875 C 32.425781 34.347656 29.007812 34.988281 25.59375 35.84375 C 19.625 35.84375 14.503906 33.707031 10.234375 29.4375 L 1.28125 20.484375 C -17.488281 4.265625 -26.875 -16.640625 -26.875 -42.234375 C -26.875 -80.640625 -23.882812 -113.28125 -17.90625 -140.15625 C -11.9375 -167.039062 -3.40625 -197.976562 7.6875 -232.96875 C 9.382812 -236.382812 11.085938 -238.945312 12.796875 -240.65625 C 20.484375 -257.71875 29.234375 -275.207031 39.046875 -293.125 C 48.859375 -311.050781 60.59375 -325.988281 74.25 -337.9375 C 78.507812 -341.351562 81.066406 -345.40625 81.921875 -350.09375 C 82.773438 -354.789062 85.765625 -358.421875 90.890625 -360.984375 C 97.710938 -363.535156 103.257812 -369.507812 107.53125 -378.90625 C 107.53125 -379.75 108.378906 -381.023438 110.078125 -382.734375 C 116.910156 -385.296875 122.882812 -389.132812 128 -394.25 C 133.125 -399.375 138.242188 -404.070312 143.359375 -408.34375 C 155.304688 -418.582031 168.109375 -425.832031 181.765625 -430.09375 C 195.421875 -434.363281 209.929688 -436.925781 225.296875 -437.78125 C 234.679688 -437.78125 244.066406 -437.351562 253.453125 -436.5 C 262.835938 -435.644531 271.796875 -433.085938 280.328125 -428.828125 C 282.035156 -427.972656 284.171875 -427.546875 286.734375 -427.546875 C 289.296875 -427.546875 291.003906 -427.972656 291.859375 -428.828125 C 296.117188 -431.378906 299.957031 -432.65625 303.375 -432.65625 C 306.789062 -432.65625 309.988281 -431.800781 312.96875 -430.09375 C 315.957031 -428.394531 319.160156 -426.691406 322.578125 -424.984375 C 324.285156 -416.453125 324.5 -408.128906 323.21875 -400.015625 C 321.9375 -391.910156 319.160156 -384.019531 314.890625 -376.34375 C 308.066406 -362.6875 301.238281 -344.765625 294.40625 -322.578125 C 287.582031 -300.390625 281.179688 -276.28125 275.203125 -250.25 C 269.234375 -224.21875 264.328125 -199.253906 260.484375 -175.359375 C 256.648438 -151.472656 254.734375 -130.992188 254.734375 -113.921875 C 254.734375 -92.585938 260.28125 -74.664062 271.375 -60.15625 C 273.9375 -59.3125 277.773438 -58.890625 282.890625 -58.890625 C 291.421875 -58.890625 299.101562 -60.59375 305.9375 -64 C 317.882812 -69.976562 329.617188 -76.59375 341.140625 -83.84375 C 352.660156 -91.09375 363.96875 -98.5625 375.0625 -106.25 L 378.90625 -106.25 C 381.457031 -106.25 381.457031 -104.96875 378.90625 -102.40625 C 375.488281 -98.988281 371.21875 -95.578125 366.09375 -92.171875 C 364.382812 -90.460938 363.53125 -88.113281 363.53125 -85.125 C 363.53125 -82.132812 362.253906 -79.785156 359.703125 -78.078125 C 356.285156 -74.671875 349.242188 -68.484375 338.578125 -59.515625 C 327.910156 -50.554688 317.03125 -42.453125 305.9375 -35.203125 C 294.84375 -27.953125 286.304688 -24.328125 280.328125 -24.328125 C 278.628906 -24.328125 276.070312 -25.175781 272.65625 -26.875 C 271.800781 -27.726562 270.734375 -28.15625 269.453125 -28.15625 C 268.171875 -28.15625 267.101562 -28.582031 266.25 -29.4375 C 252.59375 -41.382812 240.859375 -53.972656 231.046875 -67.203125 C 221.234375 -80.429688 215.898438 -96.429688 215.046875 -115.203125 C 214.191406 -119.472656 213.125 -123.523438 211.84375 -127.359375 C 210.570312 -131.203125 209.9375 -134.832031 209.9375 -138.25 L 209.9375 -162.5625 C 209.9375 -166.832031 208.867188 -169.394531 206.734375 -170.25 C 204.597656 -171.101562 202.675781 -171.957031 200.96875 -172.8125 C 200.113281 -172.8125 199.472656 -173.023438 199.046875 -173.453125 C 198.617188 -173.878906 198.40625 -174.09375 198.40625 -174.09375 C 196.695312 -174.09375 195.84375 -172.382812 195.84375 -168.96875 L 195.84375 -166.40625 C 199.257812 -164.695312 200.539062 -162.5625 199.6875 -160 Z M 28.15625 2.5625 C 47.789062 -10.238281 66.78125 -24.101562 85.125 -39.03125 C 103.46875 -53.96875 119.039062 -71.679688 131.84375 -92.171875 C 136.113281 -99.847656 140.59375 -107.3125 145.28125 -114.5625 C 149.976562 -121.820312 154.035156 -129.289062 157.453125 -136.96875 C 162.566406 -144.644531 167.679688 -152.320312 172.796875 -160 C 177.921875 -167.6875 182.191406 -175.796875 185.609375 -184.328125 C 192.429688 -197.984375 198.828125 -211.210938 204.796875 -224.015625 C 210.773438 -236.816406 216.753906 -249.613281 222.734375 -262.40625 C 226.992188 -270.945312 232.109375 -283.960938 238.078125 -301.453125 C 244.054688 -318.953125 247.472656 -331.96875 248.328125 -340.5 C 250.035156 -349.03125 252.59375 -357.132812 256 -364.8125 C 259.414062 -372.5 262.832031 -380.179688 266.25 -387.859375 C 269.664062 -395.535156 267.957031 -401.9375 261.125 -407.0625 C 258.570312 -409.625 256.441406 -410.90625 254.734375 -410.90625 C 253.878906 -410.90625 251.316406 -409.625 247.046875 -407.0625 C 236.804688 -396.820312 225.285156 -389.140625 212.484375 -384.015625 C 201.390625 -379.753906 190.9375 -374.207031 181.125 -367.375 C 171.3125 -360.550781 161.710938 -353.722656 152.328125 -346.890625 C 146.347656 -342.628906 141.007812 -337.507812 136.3125 -331.53125 C 131.625 -325.5625 126.722656 -320.441406 121.609375 -316.171875 C 115.628906 -311.054688 110.503906 -305.296875 106.234375 -298.890625 C 101.972656 -292.492188 96.429688 -287.160156 89.609375 -282.890625 C 88.753906 -282.035156 88.328125 -281.179688 88.328125 -280.328125 C 88.328125 -279.472656 87.898438 -278.625 87.046875 -277.78125 C 86.191406 -271.800781 83.84375 -266.460938 80 -261.765625 C 76.164062 -257.078125 72.96875 -251.742188 70.40625 -245.765625 C 69.550781 -243.210938 68.269531 -240.867188 66.5625 -238.734375 C 64.851562 -236.597656 63.144531 -234.25 61.4375 -231.6875 C 58.03125 -225.71875 55.257812 -219.101562 53.125 -211.84375 C 50.988281 -204.59375 48.210938 -197.554688 44.796875 -190.734375 C 39.679688 -179.640625 35.84375 -168.332031 33.28125 -156.8125 C 30.71875 -145.289062 27.304688 -133.554688 23.046875 -121.609375 C 22.191406 -118.191406 21.550781 -114.773438 21.125 -111.359375 C 20.695312 -107.953125 19.628906 -104.539062 17.921875 -101.125 C 17.066406 -91.738281 16.210938 -82.5625 15.359375 -73.59375 C 14.503906 -64.632812 12.796875 -55.460938 10.234375 -46.078125 C 8.535156 -41.816406 8.535156 -38.40625 10.234375 -35.84375 C 11.941406 -31.570312 13.007812 -27.085938 13.4375 -22.390625 C 13.863281 -17.703125 14.078125 -13.222656 14.078125 -8.953125 C 14.078125 -4.691406 14.929688 -1.707031 16.640625 0 C 16.640625 0 18.347656 1.707031 21.765625 5.125 C 23.472656 4.269531 24.75 3.84375 25.59375 3.84375 C 26.445312 3.84375 27.300781 3.414062 28.15625 2.5625 Z M 185.609375 -151.046875 C 185.609375 -150.191406 185.820312 -149.765625 186.25 -149.765625 C 186.675781 -149.765625 186.890625 -149.335938 186.890625 -148.484375 C 188.597656 -150.191406 189.453125 -151.472656 189.453125 -152.328125 L 186.890625 -154.890625 C 186.890625 -153.179688 186.460938 -151.898438 185.609375 -151.046875 Z M 39.6875 -272.65625 L 40.96875 -271.375 L 40.96875 -272.65625 Z M 208.65625 -193.296875 L 207.375 -194.5625 L 207.375 -193.296875 Z M 35.84375 -263.6875 L 34.5625 -262.40625 L 35.84375 -262.40625 Z M 162.5625 -108.8125 L 162.5625 -111.359375 Z M 162.5625 -108.8125 "/></g></g></g><g fill="#000000" fill-opacity="1"><g transform="translate(700.573184, 1126.755003)"><g><path d="M 152.328125 -433.9375 C 154.035156 -436.5 158.300781 -440.550781 165.125 -446.09375 C 171.957031 -451.644531 179 -456.765625 186.25 -461.453125 C 193.5 -466.148438 197.976562 -468.5 199.6875 -468.5 C 203.101562 -469.351562 206.085938 -469.992188 208.640625 -470.421875 C 211.203125 -470.847656 213.765625 -471.0625 216.328125 -471.0625 C 224.003906 -471.0625 235.3125 -467.429688 250.25 -460.171875 C 265.1875 -452.921875 274.785156 -445.457031 279.046875 -437.78125 C 283.316406 -428.394531 287.367188 -418.582031 291.203125 -408.34375 C 295.046875 -398.101562 297.394531 -387.4375 298.25 -376.34375 C 299.101562 -371.21875 300.171875 -366.09375 301.453125 -360.96875 C 302.734375 -355.851562 303.375 -350.734375 303.375 -345.609375 C 304.226562 -338.785156 304.65625 -331.742188 304.65625 -324.484375 C 304.65625 -317.234375 304.65625 -310.195312 304.65625 -303.375 L 304.65625 -293.140625 C 302.09375 -284.597656 301.664062 -277.34375 303.375 -271.375 C 300.8125 -267.101562 299.742188 -262.617188 300.171875 -257.921875 C 300.597656 -253.234375 299.957031 -248.753906 298.25 -244.484375 C 297.394531 -240.222656 296.753906 -236.171875 296.328125 -232.328125 C 295.898438 -228.492188 295.265625 -224.441406 294.421875 -220.171875 C 293.566406 -211.640625 289.296875 -198.835938 281.609375 -181.765625 C 273.929688 -164.703125 267.101562 -153.179688 261.125 -147.203125 C 258.570312 -144.640625 257.296875 -142.9375 257.296875 -142.09375 C 253.878906 -131 248.539062 -122.460938 241.28125 -116.484375 C 234.03125 -110.515625 226.566406 -104.113281 218.890625 -97.28125 C 212.921875 -92.164062 208.65625 -87.046875 206.09375 -81.921875 C 203.53125 -75.953125 200.113281 -71.257812 195.84375 -67.84375 C 191.582031 -64.425781 186.890625 -61.863281 181.765625 -60.15625 C 174.085938 -57.601562 168.539062 -53.765625 165.125 -48.640625 C 163.414062 -46.929688 161.28125 -45.222656 158.71875 -43.515625 C 156.164062 -41.816406 153.609375 -40.113281 151.046875 -38.40625 C 147.628906 -35.84375 143.785156 -33.707031 139.515625 -32 C 135.253906 -30.289062 131.414062 -27.304688 128 -23.046875 C 127.144531 -22.191406 125.863281 -21.335938 124.15625 -20.484375 C 122.457031 -19.628906 120.753906 -19.203125 119.046875 -19.203125 C 113.066406 -19.203125 107.945312 -17.066406 103.6875 -12.796875 C 99.414062 -9.390625 94.503906 -7.472656 88.953125 -7.046875 C 83.410156 -6.617188 78.507812 -3.84375 74.25 1.28125 C 71.6875 2.132812 66.988281 2.5625 60.15625 2.5625 C 54.1875 2.5625 49.492188 1.707031 46.078125 0 C 45.222656 -3.414062 43.519531 -5.125 40.96875 -5.125 C 38.40625 -5.125 35.414062 -4.269531 32 -2.5625 L 8.953125 -2.5625 C 4.691406 2.5625 1.28125 9.390625 -1.28125 17.921875 C -4.695312 29.867188 -8.109375 41.601562 -11.515625 53.125 C -14.929688 64.644531 -19.625 75.953125 -25.59375 87.046875 C -28.15625 90.460938 -30.289062 92.171875 -32 92.171875 C -34.5625 92.171875 -37.125 90.890625 -39.6875 88.328125 C -43.945312 83.203125 -47.144531 77.015625 -49.28125 69.765625 C -51.414062 62.515625 -54.617188 55.898438 -58.890625 49.921875 C -64.003906 43.953125 -64.425781 35.421875 -60.15625 24.328125 C -56.75 14.929688 -53.765625 5.539062 -51.203125 -3.84375 C -48.640625 -13.226562 -45.648438 -22.1875 -42.234375 -30.71875 C -37.972656 -43.519531 -33.921875 -56.535156 -30.078125 -69.765625 C -26.242188 -82.992188 -22.191406 -96.007812 -17.921875 -108.8125 C -13.648438 -119.050781 -10.445312 -129.289062 -8.3125 -139.53125 C -6.1875 -149.769531 -3.84375 -160.007812 -1.28125 -170.25 C 2.132812 -180.488281 5.117188 -190.941406 7.671875 -201.609375 C 10.234375 -212.273438 13.222656 -223.15625 16.640625 -234.25 C 28.585938 -275.207031 39.253906 -317.019531 48.640625 -359.6875 C 58.023438 -402.363281 66.132812 -444.609375 72.96875 -486.421875 C 73.820312 -490.691406 76.378906 -504.5625 80.640625 -528.03125 C 84.910156 -551.5 90.242188 -579.445312 96.640625 -611.875 C 103.046875 -644.300781 109.445312 -676.515625 115.84375 -708.515625 C 122.25 -740.515625 127.582031 -768.25 131.84375 -791.71875 C 136.113281 -815.1875 138.675781 -829.054688 139.53125 -833.328125 C 139.53125 -835.023438 139.742188 -836.726562 140.171875 -838.4375 C 140.597656 -840.144531 140.8125 -841.851562 140.8125 -843.5625 C 141.664062 -849.53125 142.300781 -855.285156 142.71875 -860.828125 C 143.144531 -866.378906 144.210938 -871.71875 145.921875 -876.84375 C 147.628906 -881.957031 148.054688 -887.5 147.203125 -893.46875 C 146.347656 -899.445312 147.203125 -905 149.765625 -910.125 C 150.617188 -910.976562 151.046875 -912.6875 151.046875 -915.25 C 150.191406 -927.195312 150.832031 -938.503906 152.96875 -949.171875 C 155.101562 -959.835938 156.597656 -970.71875 157.453125 -981.8125 C 157.453125 -989.488281 158.085938 -997.164062 159.359375 -1004.84375 C 160.640625 -1012.53125 161.707031 -1020.640625 162.5625 -1029.171875 C 162.5625 -1035.140625 164.910156 -1039.40625 169.609375 -1041.96875 C 174.304688 -1044.53125 179.210938 -1045.8125 184.328125 -1045.8125 C 189.453125 -1044.957031 195 -1042.820312 200.96875 -1039.40625 C 201.820312 -1039.40625 203.101562 -1038.550781 204.8125 -1036.84375 C 206.519531 -1032.582031 208.4375 -1028.957031 210.5625 -1025.96875 C 212.695312 -1022.976562 214.191406 -1019.351562 215.046875 -1015.09375 C 216.753906 -1010.820312 217.820312 -1006.550781 218.25 -1002.28125 C 218.675781 -998.019531 218.035156 -993.328125 216.328125 -988.203125 C 212.910156 -974.554688 209.921875 -960.691406 207.359375 -946.609375 C 204.804688 -932.523438 203.101562 -918.226562 202.25 -903.71875 C 201.394531 -890.914062 199.6875 -878.113281 197.125 -865.3125 C 194.570312 -852.519531 192.441406 -839.722656 190.734375 -826.921875 C 190.734375 -824.359375 188.597656 -812.410156 184.328125 -791.078125 C 180.054688 -769.742188 174.929688 -744.140625 168.953125 -714.265625 C 162.984375 -684.398438 157.222656 -654.320312 151.671875 -624.03125 C 146.128906 -593.738281 141.4375 -567.921875 137.59375 -546.578125 C 133.757812 -525.242188 131.84375 -513.300781 131.84375 -510.75 C 131.84375 -507.332031 130.132812 -503.914062 126.71875 -500.5 C 125.875 -499.644531 125.238281 -498.363281 124.8125 -496.65625 C 124.382812 -494.957031 124.597656 -493.253906 125.453125 -491.546875 C 128.003906 -486.421875 128.425781 -480.875 126.71875 -474.90625 C 122.457031 -461.25 119.472656 -446.953125 117.765625 -432.015625 C 116.054688 -417.085938 113.921875 -401.941406 111.359375 -386.578125 C 118.191406 -395.109375 125.234375 -403.210938 132.484375 -410.890625 C 139.734375 -418.578125 146.347656 -426.257812 152.328125 -433.9375 Z M 245.765625 -400.65625 C 244.910156 -405.78125 243.203125 -410.472656 240.640625 -414.734375 C 238.085938 -419.003906 235.53125 -423.273438 232.96875 -427.546875 C 231.257812 -429.242188 229.976562 -430.09375 229.125 -430.09375 C 228.269531 -430.09375 227.414062 -429.878906 226.5625 -429.453125 C 225.71875 -429.035156 224.867188 -428.828125 224.015625 -428.828125 C 202.679688 -417.734375 182.195312 -401.085938 162.5625 -378.890625 C 142.9375 -356.703125 127.578125 -335.367188 116.484375 -314.890625 C 108.804688 -303.796875 102.191406 -291.632812 96.640625 -278.40625 C 91.097656 -265.1875 85.335938 -252.175781 79.359375 -239.375 C 68.265625 -218.894531 61.015625 -197.5625 57.609375 -175.375 C 55.046875 -163.425781 51.414062 -151.691406 46.71875 -140.171875 C 42.03125 -128.648438 38.40625 -116.914062 35.84375 -104.96875 C 35.84375 -103.257812 35.203125 -101.335938 33.921875 -99.203125 C 32.640625 -97.066406 31.144531 -95.144531 29.4375 -93.4375 C 28.582031 -92.59375 27.726562 -91.742188 26.875 -90.890625 C 26.019531 -90.035156 26.019531 -88.753906 26.875 -87.046875 C 30.289062 -81.066406 30.503906 -75.726562 27.515625 -71.03125 C 24.535156 -66.34375 22.617188 -61.441406 21.765625 -56.328125 C 21.765625 -54.617188 20.695312 -53.550781 18.5625 -53.125 C 16.425781 -52.695312 15.785156 -51.203125 16.640625 -48.640625 C 18.347656 -46.078125 20.054688 -44.796875 21.765625 -44.796875 C 23.472656 -44.796875 24.75 -45.007812 25.59375 -45.4375 C 26.445312 -45.863281 27.300781 -46.078125 28.15625 -46.078125 C 33.28125 -46.929688 38.398438 -48.425781 43.515625 -50.5625 C 48.640625 -52.695312 53.765625 -53.765625 58.890625 -53.765625 C 59.734375 -53.765625 60.15625 -53.765625 60.15625 -53.765625 C 60.15625 -53.765625 60.582031 -53.765625 61.4375 -53.765625 C 62.289062 -53.765625 64.425781 -54.617188 67.84375 -56.328125 L 110.078125 -83.203125 C 151.046875 -108.804688 185.179688 -141.660156 212.484375 -181.765625 C 220.171875 -191.148438 226.785156 -201.601562 232.328125 -213.125 C 237.878906 -224.644531 242.359375 -236.804688 245.765625 -249.609375 C 249.179688 -261.554688 251.742188 -273.71875 253.453125 -286.09375 C 255.160156 -298.46875 255.585938 -311.484375 254.734375 -325.140625 C 255.585938 -337.085938 255.160156 -349.457031 253.453125 -362.25 C 251.742188 -375.050781 249.179688 -387.851562 245.765625 -400.65625 Z M 160 -80.640625 L 125.453125 -53.765625 C 124.597656 -52.910156 124.171875 -52.054688 124.171875 -51.203125 C 124.171875 -50.347656 123.742188 -49.066406 122.890625 -47.359375 C 128.859375 -47.359375 137.390625 -51.625 148.484375 -60.15625 C 159.578125 -68.695312 165.550781 -75.953125 166.40625 -81.921875 C 165.550781 -81.066406 164.484375 -80.851562 163.203125 -81.28125 C 161.921875 -81.707031 160.851562 -81.492188 160 -80.640625 Z M 83.203125 -47.359375 C 77.234375 -47.359375 72.539062 -46.929688 69.125 -46.078125 L 34.5625 -26.875 L 34.5625 -25.59375 C 36.269531 -25.59375 37.972656 -25.59375 39.671875 -25.59375 C 41.378906 -25.59375 42.660156 -25.59375 43.515625 -25.59375 C 46.929688 -25.59375 49.066406 -26.019531 49.921875 -26.875 C 55.898438 -30.289062 61.875 -33.066406 67.84375 -35.203125 C 73.8125 -37.335938 78.929688 -41.390625 83.203125 -47.359375 C 84.910156 -48.210938 86.617188 -48.640625 88.328125 -48.640625 C 90.035156 -48.640625 91.316406 -50.347656 92.171875 -53.765625 C 90.460938 -52.910156 88.753906 -52.269531 87.046875 -51.84375 C 85.335938 -51.414062 84.054688 -49.921875 83.203125 -47.359375 Z M 89.609375 -28.15625 C 91.316406 -25.601562 93.019531 -24.328125 94.71875 -24.328125 C 95.570312 -24.328125 96.210938 -24.535156 96.640625 -24.953125 C 97.066406 -25.378906 97.707031 -25.59375 98.5625 -25.59375 C 106.238281 -30.71875 113.492188 -36.691406 120.328125 -43.515625 C 121.179688 -43.515625 121.609375 -44.796875 121.609375 -47.359375 C 115.628906 -46.503906 110.078125 -44.15625 104.953125 -40.3125 C 99.835938 -36.476562 94.722656 -32.425781 89.609375 -28.15625 Z M 104.96875 -355.859375 C 104.113281 -355.003906 103.6875 -353.507812 103.6875 -351.375 C 103.6875 -349.238281 103.257812 -347.316406 102.40625 -345.609375 C 106.675781 -347.316406 110.085938 -350.304688 112.640625 -354.578125 C 115.203125 -358.847656 117.765625 -362.6875 120.328125 -366.09375 C 122.035156 -366.945312 122.675781 -368.015625 122.25 -369.296875 C 121.820312 -370.578125 121.609375 -371.644531 121.609375 -372.5 C 118.191406 -370.789062 115.203125 -368.441406 112.640625 -365.453125 C 110.085938 -362.472656 107.53125 -359.273438 104.96875 -355.859375 Z M 202.25 -120.328125 C 203.101562 -120.328125 203.53125 -121.609375 203.53125 -124.171875 C 203.53125 -126.722656 201.394531 -126.722656 197.125 -124.171875 C 192.863281 -119.898438 190.734375 -115.203125 190.734375 -110.078125 C 193.285156 -110.929688 195.414062 -112.425781 197.125 -114.5625 C 198.832031 -116.695312 200.539062 -118.617188 202.25 -120.328125 Z M 64 -14.078125 C 65.707031 -14.078125 66.988281 -14.078125 67.84375 -14.078125 C 68.695312 -14.078125 69.550781 -14.078125 70.40625 -14.078125 C 75.519531 -14.078125 79.359375 -15.359375 81.921875 -17.921875 L 81.921875 -20.484375 C 81.921875 -20.484375 81.921875 -20.695312 81.921875 -21.125 C 81.921875 -21.550781 81.492188 -21.765625 80.640625 -21.765625 C 78.078125 -20.054688 75.085938 -19.414062 71.671875 -19.84375 C 68.265625 -20.269531 65.707031 -18.347656 64 -14.078125 Z M 15.359375 -21.765625 C 17.921875 -20.910156 20.910156 -20.484375 24.328125 -20.484375 C 27.734375 -20.484375 29.863281 -20.910156 30.71875 -21.765625 C 32.425781 -21.765625 33.28125 -23.039062 33.28125 -25.59375 C 32.425781 -25.59375 31.570312 -25.59375 30.71875 -25.59375 C 29.863281 -25.59375 28.582031 -25.59375 26.875 -25.59375 C 21.757812 -25.59375 17.921875 -24.316406 15.359375 -21.765625 Z M 249.609375 -176.65625 C 247.046875 -175.800781 245.765625 -172.382812 245.765625 -166.40625 C 248.328125 -168.113281 249.609375 -169.820312 249.609375 -171.53125 C 249.609375 -173.238281 249.609375 -174.945312 249.609375 -176.65625 Z M 102.40625 -58.890625 C 104.113281 -58.890625 105.394531 -59.097656 106.25 -59.515625 C 107.101562 -59.941406 108.378906 -60.582031 110.078125 -61.4375 C 110.078125 -62.289062 109.648438 -62.929688 108.796875 -63.359375 C 107.953125 -63.785156 107.53125 -64 107.53125 -64 C 106.675781 -63.144531 105.820312 -62.289062 104.96875 -61.4375 C 104.113281 -60.582031 103.257812 -59.734375 102.40625 -58.890625 Z M 181.765625 -98.5625 C 184.328125 -98.5625 185.609375 -100.269531 185.609375 -103.6875 C 183.046875 -103.6875 181.765625 -101.976562 181.765625 -98.5625 Z M 122.890625 -373.78125 C 125.441406 -375.488281 126.71875 -377.195312 126.71875 -378.90625 C 124.164062 -378.90625 122.890625 -377.195312 122.890625 -373.78125 Z M 232.96875 -144.640625 C 233.820312 -145.492188 234.25 -146.773438 234.25 -148.484375 C 232.539062 -146.773438 232.113281 -145.492188 232.96875 -144.640625 Z M 213.765625 -135.6875 L 212.484375 -134.40625 L 213.765625 -134.40625 Z M 144.640625 -90.890625 L 143.359375 -89.609375 L 144.640625 -89.609375 Z M 266.25 -291.859375 L 268.8125 -291.859375 Z M 266.25 -291.859375 "/></g></g></g><g fill="#000000" fill-opacity="1"><g transform="translate(1030.806711, 1126.755003)"><g><path d="M 84.484375 -268.8125 C 81.921875 -271.375 79.144531 -273.929688 76.15625 -276.484375 C 73.175781 -279.046875 71.6875 -282.035156 71.6875 -285.453125 C 71.6875 -291.429688 70.191406 -296.550781 67.203125 -300.8125 C 64.210938 -305.082031 61.015625 -308.921875 57.609375 -312.328125 C 54.191406 -316.597656 52.910156 -320.441406 53.765625 -323.859375 C 55.472656 -330.679688 57.601562 -338.144531 60.15625 -346.25 C 62.71875 -354.363281 66.132812 -361.40625 70.40625 -367.375 C 90.03125 -402.363281 119.472656 -428.816406 158.734375 -446.734375 C 163.847656 -448.441406 169.390625 -450.789062 175.359375 -453.78125 C 181.335938 -456.769531 186.890625 -458.691406 192.015625 -459.546875 C 198.835938 -461.253906 204.164062 -462.53125 208 -463.375 C 211.84375 -464.226562 215.472656 -464.65625 218.890625 -464.65625 C 223.160156 -464.65625 228.707031 -464.015625 235.53125 -462.734375 C 242.351562 -461.460938 251.3125 -459.972656 262.40625 -458.265625 C 267.53125 -457.410156 272.4375 -456.769531 277.125 -456.34375 C 281.820312 -455.914062 286.734375 -455.703125 291.859375 -455.703125 C 297.828125 -455.703125 303.15625 -454.847656 307.84375 -453.140625 C 312.539062 -451.429688 317.878906 -449.722656 323.859375 -448.015625 C 326.421875 -447.160156 329.191406 -445.664062 332.171875 -443.53125 C 335.160156 -441.40625 336.65625 -438.632812 336.65625 -435.21875 C 336.65625 -430.957031 332.390625 -427.546875 323.859375 -424.984375 C 323.003906 -424.128906 321.082031 -423.703125 318.09375 -423.703125 C 315.101562 -423.703125 312.757812 -423.703125 311.0625 -423.703125 C 309.351562 -423.703125 304.65625 -423.0625 296.96875 -421.78125 C 289.289062 -420.5 283.742188 -419.429688 280.328125 -418.578125 C 272.648438 -415.160156 264.96875 -411.957031 257.28125 -408.96875 C 249.601562 -405.988281 240.21875 -404.070312 229.125 -403.21875 C 220.59375 -402.363281 212.695312 -400.226562 205.4375 -396.8125 C 198.1875 -393.40625 190.722656 -389.140625 183.046875 -384.015625 C 177.929688 -378.898438 170.675781 -374.632812 161.28125 -371.21875 C 145.925781 -366.09375 136.539062 -357.984375 133.125 -346.890625 C 129.707031 -340.921875 126.289062 -335.585938 122.875 -330.890625 C 119.46875 -326.203125 116.054688 -321.722656 112.640625 -317.453125 C 106.671875 -305.503906 110.515625 -295.265625 124.171875 -286.734375 C 130.140625 -282.460938 137.390625 -277.765625 145.921875 -272.640625 C 154.460938 -267.523438 162.144531 -263.6875 168.96875 -261.125 C 175.789062 -256.863281 182.191406 -254.734375 188.171875 -254.734375 C 193.285156 -254.734375 198.40625 -256.015625 203.53125 -258.578125 C 210.351562 -262.835938 216.328125 -265.394531 221.453125 -266.25 C 224.867188 -267.957031 232.757812 -270.09375 245.125 -272.65625 C 257.5 -275.21875 271.367188 -278.414062 286.734375 -282.25 C 302.097656 -286.09375 315.960938 -289.503906 328.328125 -292.484375 C 340.703125 -295.472656 348.171875 -297.394531 350.734375 -298.25 C 357.566406 -300.8125 364.609375 -302.734375 371.859375 -304.015625 C 379.109375 -305.296875 385.722656 -307.644531 391.703125 -311.0625 L 396.8125 -311.0625 C 400.226562 -311.0625 403.644531 -309.351562 407.0625 -305.9375 C 407.0625 -304.226562 405.78125 -302.945312 403.21875 -302.09375 C 397.25 -298.675781 391.273438 -296.539062 385.296875 -295.6875 C 379.328125 -293.988281 368.445312 -291.21875 352.65625 -287.375 C 336.863281 -283.53125 319.582031 -279.472656 300.8125 -275.203125 C 282.039062 -270.941406 264.972656 -266.460938 249.609375 -261.765625 C 234.253906 -257.078125 223.585938 -253.453125 217.609375 -250.890625 C 215.898438 -250.035156 214.832031 -249.394531 214.40625 -248.96875 C 213.976562 -248.539062 212.910156 -247.472656 211.203125 -245.765625 C 206.941406 -243.210938 206.941406 -239.800781 211.203125 -235.53125 C 215.472656 -232.113281 219.523438 -228.484375 223.359375 -224.640625 C 227.203125 -220.804688 229.550781 -216.328125 230.40625 -211.203125 C 233.820312 -203.523438 238.085938 -195.421875 243.203125 -186.890625 C 248.328125 -178.359375 251.316406 -169.820312 252.171875 -161.28125 L 252.171875 -154.890625 C 249.609375 -143.796875 247.257812 -132.703125 245.125 -121.609375 C 243 -110.515625 238.519531 -100.273438 231.6875 -90.890625 C 230.832031 -88.328125 230.191406 -85.976562 229.765625 -83.84375 C 229.335938 -81.707031 228.273438 -79.785156 226.578125 -78.078125 C 224.015625 -74.671875 221.238281 -71.046875 218.25 -67.203125 C 215.257812 -63.359375 212.910156 -59.304688 211.203125 -55.046875 C 205.234375 -43.953125 199.046875 -35.84375 192.640625 -30.71875 C 186.242188 -25.601562 176.21875 -18.347656 162.5625 -8.953125 C 160.007812 -7.253906 157.878906 -5.765625 156.171875 -4.484375 C 154.460938 -3.203125 152.753906 -1.707031 151.046875 0 C 145.078125 7.675781 137.609375 13.648438 128.640625 17.921875 C 119.679688 22.191406 110.507812 26.03125 101.125 29.4375 C 90.882812 33.707031 78.9375 35.84375 65.28125 35.84375 C 55.894531 34.132812 46.082031 31.359375 35.84375 27.515625 C 25.601562 23.679688 17.492188 17.492188 11.515625 8.953125 C 1.273438 -0.429688 -6.828125 -10.882812 -12.796875 -22.40625 C -18.773438 -33.925781 -23.46875 -46.507812 -26.875 -60.15625 C -27.726562 -64.425781 -28.15625 -68.476562 -28.15625 -72.3125 C -28.15625 -76.15625 -27.300781 -79.785156 -25.59375 -83.203125 C -20.476562 -90.023438 -16.640625 -96.632812 -14.078125 -103.03125 C -11.515625 -109.4375 -8.101562 -115.628906 -3.84375 -121.609375 C 0.425781 -130.992188 6.398438 -138.882812 14.078125 -145.28125 C 21.753906 -151.6875 31.140625 -157.019531 42.234375 -161.28125 C 44.796875 -163.84375 48.640625 -166.40625 53.765625 -168.96875 C 57.179688 -172.382812 60.59375 -175.796875 64 -179.203125 C 67.414062 -182.617188 72.109375 -185.179688 78.078125 -186.890625 C 81.492188 -186.890625 82.347656 -188.171875 80.640625 -190.734375 C 82.347656 -193.285156 84.054688 -195.628906 85.765625 -197.765625 C 87.472656 -199.898438 90.03125 -200.96875 93.4375 -200.96875 C 94.289062 -200.96875 95.359375 -200.753906 96.640625 -200.328125 C 97.921875 -199.898438 98.988281 -199.6875 99.84375 -199.6875 C 102.40625 -199.6875 103.6875 -201.820312 103.6875 -206.09375 C 105.394531 -207.800781 107.097656 -209.289062 108.796875 -210.5625 C 110.503906 -211.84375 113.066406 -212.484375 116.484375 -212.484375 C 121.609375 -213.335938 125.019531 -215.046875 126.71875 -217.609375 C 128.425781 -220.171875 129.707031 -223.160156 130.5625 -226.578125 C 131.414062 -229.128906 134.40625 -232.96875 139.53125 -238.09375 C 130.144531 -243.207031 120.753906 -248.113281 111.359375 -252.8125 C 101.972656 -257.507812 93.015625 -262.84375 84.484375 -268.8125 Z M 181.765625 -208.65625 C 178.359375 -216.332031 172.8125 -220.171875 165.125 -220.171875 C 164.269531 -220.171875 163.628906 -219.957031 163.203125 -219.53125 C 162.773438 -219.101562 162.132812 -218.890625 161.28125 -218.890625 C 157.019531 -215.472656 151.898438 -212.695312 145.921875 -210.5625 C 139.953125 -208.4375 134.832031 -205.664062 130.5625 -202.25 C 124.59375 -197.976562 118.40625 -193.707031 112 -189.4375 C 105.601562 -185.175781 98.992188 -181.765625 92.171875 -179.203125 C 86.191406 -176.648438 81.921875 -174.09375 79.359375 -171.53125 C 64.003906 -165.550781 49.925781 -154.453125 37.125 -138.234375 C 24.320312 -122.023438 15.359375 -106.242188 10.234375 -90.890625 C 6.828125 -82.347656 5.757812 -73.8125 7.03125 -65.28125 C 8.3125 -56.75 6.820312 -48.644531 2.5625 -40.96875 C 3.414062 -40.113281 3.84375 -39.472656 3.84375 -39.046875 C 3.84375 -38.617188 3.84375 -38.40625 3.84375 -38.40625 C 7.25 -34.988281 9.378906 -31.144531 10.234375 -26.875 C 11.085938 -22.613281 13.222656 -19.203125 16.640625 -16.640625 C 20.910156 -14.929688 24.320312 -13.863281 26.875 -13.4375 C 29.4375 -13.007812 32 -12.796875 34.5625 -12.796875 C 36.269531 -12.796875 37.765625 -12.796875 39.046875 -12.796875 C 40.328125 -12.796875 41.390625 -12.796875 42.234375 -12.796875 C 45.648438 -12.796875 48.640625 -13.222656 51.203125 -14.078125 C 53.765625 -14.929688 56.328125 -15.785156 58.890625 -16.640625 C 83.628906 -26.023438 105.8125 -41.171875 125.4375 -62.078125 C 145.070312 -82.984375 161.289062 -104.53125 174.09375 -126.71875 C 186.894531 -148.0625 191.160156 -171.53125 186.890625 -197.125 C 186.035156 -198.832031 185.394531 -200.753906 184.96875 -202.890625 C 184.539062 -205.023438 183.472656 -206.945312 181.765625 -208.65625 Z M 125.453125 -29.4375 C 131.421875 -36.269531 136.75 -42.457031 141.4375 -48 C 146.132812 -53.550781 150.617188 -58.882812 154.890625 -64 C 156.597656 -64 156.8125 -64.640625 155.53125 -65.921875 C 154.25 -67.203125 153.609375 -67.84375 153.609375 -67.84375 C 151.046875 -68.695312 150.191406 -69.125 151.046875 -69.125 C 145.078125 -64.851562 139.101562 -59.941406 133.125 -54.390625 C 127.15625 -48.847656 122.890625 -42.238281 120.328125 -34.5625 C 119.472656 -33.707031 119.898438 -33.066406 121.609375 -32.640625 C 123.316406 -32.210938 124.171875 -32 124.171875 -32 C 122.460938 -30.289062 122.890625 -29.4375 125.453125 -29.4375 Z M 170.25 -87.046875 C 171.957031 -91.304688 171.957031 -94.289062 170.25 -96 C 170.25 -97.707031 168.96875 -98.132812 166.40625 -97.28125 C 163.84375 -96.425781 162.132812 -95.144531 161.28125 -93.4375 C 160.425781 -90.03125 159.570312 -87.046875 158.71875 -84.484375 C 157.875 -81.921875 157.023438 -79.785156 156.171875 -78.078125 L 157.453125 -76.796875 L 161.28125 -76.796875 C 163.84375 -78.503906 165.765625 -80.210938 167.046875 -81.921875 C 168.328125 -83.628906 169.394531 -85.335938 170.25 -87.046875 Z M 83.203125 -2.5625 C 90.023438 -3.414062 93.863281 -4.269531 94.71875 -5.125 C 95.570312 -5.976562 95.570312 -8.535156 94.71875 -12.796875 C 84.476562 -12.796875 79.359375 -9.8125 79.359375 -3.84375 C 80.210938 -2.988281 81.492188 -2.5625 83.203125 -2.5625 Z M 181.765625 -106.25 C 181.765625 -106.25 181.765625 -106.675781 181.765625 -107.53125 C 181.765625 -108.382812 181.335938 -109.234375 180.484375 -110.078125 L 177.921875 -110.078125 C 177.921875 -108.378906 176.644531 -106.675781 174.09375 -104.96875 C 175.800781 -104.96875 176.65625 -104.753906 176.65625 -104.328125 C 176.65625 -103.898438 177.078125 -103.6875 177.921875 -103.6875 C 178.773438 -103.6875 180.054688 -104.539062 181.765625 -106.25 Z M 67.84375 0 L 75.53125 0 C 77.226562 0 78.078125 -0.851562 78.078125 -2.5625 L 69.125 -2.5625 C 69.125 -2.5625 69.125 -2.347656 69.125 -1.921875 C 69.125 -1.492188 68.695312 -0.851562 67.84375 0 Z M 113.921875 -30.71875 L 113.921875 -29.4375 L 115.203125 -29.4375 Z M 85.765625 14.078125 L 84.484375 12.796875 L 84.484375 14.078125 Z M 85.765625 14.078125 "/></g></g></g></g></g><g transform="matrix(1, 0, 0, 1, 321, 285)"><g clip-path="url(#0b1d939130)"><g fill="#ffffff" fill-opacity="1"><g transform="translate(1.382354, 575.419003)"><g><path d="M 149.75 -380.96875 L 2.390625 -380.96875 L 2.390625 -419.296875 L 341.4375 -419.296875 L 341.4375 -380.96875 L 194.078125 -380.96875 L 194.078125 0 L 149.75 0 Z M 149.75 -380.96875 "/></g></g></g><g fill="#ffffff" fill-opacity="1"><g transform="translate(345.16589, 575.419003)"><g><path d="M 183.890625 3.59375 C 152.742188 3.59375 122.894531 -1.394531 94.34375 -11.375 C 65.789062 -21.363281 43.726562 -34.546875 28.15625 -50.921875 L 45.53125 -85.0625 C 60.695312 -69.882812 80.859375 -57.601562 106.015625 -48.21875 C 131.179688 -38.832031 157.140625 -34.140625 183.890625 -34.140625 C 221.429688 -34.140625 249.582031 -41.023438 268.34375 -54.796875 C 287.113281 -68.578125 296.5 -86.453125 296.5 -108.421875 C 296.5 -125.191406 291.40625 -138.566406 281.21875 -148.546875 C 271.039062 -158.535156 258.5625 -166.222656 243.78125 -171.609375 C 229.007812 -177.003906 208.445312 -182.894531 182.09375 -189.28125 C 150.550781 -197.269531 125.394531 -204.957031 106.625 -212.34375 C 87.851562 -219.726562 71.78125 -231.007812 58.40625 -246.1875 C 45.03125 -261.363281 38.34375 -281.929688 38.34375 -307.890625 C 38.34375 -329.054688 43.929688 -348.320312 55.109375 -365.6875 C 66.285156 -383.0625 83.453125 -396.9375 106.609375 -407.3125 C 129.773438 -417.695312 158.53125 -422.890625 192.875 -422.890625 C 216.832031 -422.890625 240.289062 -419.59375 263.25 -413 C 286.21875 -406.414062 306.085938 -397.332031 322.859375 -385.75 L 307.890625 -350.421875 C 290.316406 -361.992188 271.546875 -370.675781 251.578125 -376.46875 C 231.609375 -382.257812 212.039062 -385.15625 192.875 -385.15625 C 156.132812 -385.15625 128.476562 -378.066406 109.90625 -363.890625 C 91.34375 -349.710938 82.0625 -331.441406 82.0625 -309.078125 C 82.0625 -292.304688 87.148438 -278.828125 97.328125 -268.640625 C 107.515625 -258.460938 120.296875 -250.675781 135.671875 -245.28125 C 151.046875 -239.894531 171.710938 -234.007812 197.671875 -227.625 C 228.421875 -220.03125 253.28125 -212.539062 272.25 -205.15625 C 291.21875 -197.769531 307.289062 -186.585938 320.46875 -171.609375 C 333.644531 -156.640625 340.234375 -136.375 340.234375 -110.8125 C 340.234375 -89.644531 334.539062 -70.375 323.15625 -53 C 311.78125 -35.632812 294.3125 -21.859375 270.75 -11.671875 C 247.1875 -1.492188 218.234375 3.59375 183.890625 3.59375 Z M 183.890625 3.59375 "/></g></g></g><g fill="#ffffff" fill-opacity="1"><g transform="translate(713.505364, 575.419003)"><g><path d="M 250.375 3.59375 C 208.851562 3.59375 171.414062 -5.585938 138.0625 -23.953125 C 104.71875 -42.328125 78.5625 -67.785156 59.59375 -100.328125 C 40.625 -132.878906 31.140625 -169.320312 31.140625 -209.65625 C 31.140625 -249.988281 40.625 -286.425781 59.59375 -318.96875 C 78.5625 -351.507812 104.816406 -376.960938 138.359375 -395.328125 C 171.910156 -413.703125 209.453125 -422.890625 250.984375 -422.890625 C 282.128906 -422.890625 310.878906 -417.695312 337.234375 -407.3125 C 363.585938 -396.9375 385.953125 -381.765625 404.328125 -361.796875 L 376.171875 -333.640625 C 343.421875 -366.785156 302.085938 -383.359375 252.171875 -383.359375 C 219.035156 -383.359375 188.890625 -375.769531 161.734375 -360.59375 C 134.578125 -345.425781 113.3125 -324.660156 97.9375 -298.296875 C 82.5625 -271.941406 74.875 -242.394531 74.875 -209.65625 C 74.875 -176.90625 82.5625 -147.351562 97.9375 -121 C 113.3125 -94.644531 134.578125 -73.878906 161.734375 -58.703125 C 188.890625 -43.523438 219.035156 -35.9375 252.171875 -35.9375 C 302.492188 -35.9375 343.828125 -52.707031 376.171875 -86.25 L 404.328125 -58.109375 C 385.953125 -38.140625 363.488281 -22.863281 336.9375 -12.28125 C 310.382812 -1.695312 281.53125 3.59375 250.375 3.59375 Z M 250.375 3.59375 "/></g></g></g></g></g></svg>